<svg id="Flat" height="512" viewBox="0 0 64 64" width="512" xmlns="http://www.w3.org/2000/svg"><path d="m54.033 14h-44.066a2.967 2.967 0 0 0 -2.967 2.967v26.066a2.967 2.967 0 0 0 2.967 2.967h16.033v7h-4l-2 8h24l-2-8h-4v-7h16.033a2.967 2.967 0 0 0 2.967-2.967v-26.066a2.967 2.967 0 0 0 -2.967-2.967z" fill="#7c9faf"/><rect fill="#2bb3ce" height="28" rx="2.967" width="50" x="7" y="14"/><path d="m26 46h12v10h-12z" fill="#3a5565"/><g fill="#fff"><path d="m23.5 26.5h17v2h-17z" transform="matrix(.471 -.882 .882 .471 -7.325 42.79)"/><path d="m39.64 33.769-1.28-1.538 5.078-4.231-5.078-4.231 1.28-1.538 6 5a1 1 0 0 1 0 1.538z"/><path d="m24.36 33.769-6-5a1 1 0 0 1 0-1.538l6-5 1.28 1.538-5.078 4.231 5.078 4.231z"/><path d="m45 33h8v2h-8z"/></g><circle cx="32" cy="11" fill="#cde2dd" r="8"/><path d="m35.8 7.6-1.6-1.2-1.967 2.623a1.977 1.977 0 0 0 -.233-.023 2 2 0 1 0 1.839 1.214z" fill="#711018"/></svg>