<svg height="512pt" viewBox="-16 0 512 512" width="512pt" xmlns="http://www.w3.org/2000/svg"><path d="m390.539062 446.71875h-121.546874v-182.699219h72.527343c4.152344 0 7.519531-3.367187 7.519531-7.519531s-3.367187-7.515625-7.519531-7.515625h-72.527343v-182.699219h121.546874c4.152344 0 7.519532-3.367187 7.519532-7.519531s-3.367188-7.519531-7.519532-7.519531h-129.066406c-4.152344 0-7.519531 3.367187-7.519531 7.519531v190.21875h-66.417969c-4.152344 0-7.519531 3.363281-7.519531 7.515625s3.367187 7.519531 7.519531 7.519531h66.417969v190.21875c0 4.152344 3.367187 7.515625 7.519531 7.515625h129.066406c4.152344 0 7.519532-3.363281 7.519532-7.515625 0-4.152343-3.367188-7.519531-7.519532-7.519531zm0 0" fill="#d0cfd1"/><path d="m174.503906 51.246094h-153.953125c-11.332031 0-20.550781 9.21875-20.550781 20.550781v369.410156c0 11.328125 9.21875 20.546875 20.550781 20.546875h153.953125c11.332032 0 20.550782-9.21875 20.550782-20.546875v-369.410156c0-11.332031-9.21875-20.550781-20.550782-20.550781zm0 0" fill="#646464"/><g fill="#4b4b4b"><path d="m174.503906 51.246094h-24.058594c11.332032 0 20.550782 9.21875 20.550782 20.550781v369.410156c0 11.328125-9.21875 20.546875-20.550782 20.546875h24.058594c11.332032 0 20.550782-9.21875 20.550782-20.546875v-112.933593l-10.027344-34.117188 10.027344-32.921875v-60.007813l-10.027344-34.5 10.027344-30.363281v-64.566406c0-11.332031-9.21875-20.550781-20.550782-20.550781zm0 0"/><path d="m174.503906 51.246094h-24.058594c11.332032 0 20.550782 9.21875 20.550782 20.550781v369.410156c0 11.328125-9.21875 20.546875-20.550782 20.546875h24.058594c11.332032 0 20.550782-9.21875 20.550782-20.546875v-112.933593l-10.027344-34.117188 10.027344-32.921875v-60.007813l-10.027344-34.5 10.027344-30.363281v-64.566406c0-11.332031-9.21875-20.550781-20.550782-20.550781zm0 0"/><path d="m58.414062 105.289062h-15.480468c-4.152344 0-7.519532-3.363281-7.519532-7.515624 0-4.152344 3.367188-7.519532 7.519532-7.519532h15.480468c4.152344 0 7.519532 3.367188 7.519532 7.519532 0 4.152343-3.367188 7.515624-7.519532 7.515624zm0 0"/><path d="m105.269531 105.289062h-15.484375c-4.152344 0-7.519531-3.363281-7.519531-7.515624 0-4.152344 3.367187-7.519532 7.519531-7.519532h15.484375c4.152344 0 7.515625 3.367188 7.515625 7.519532 0 4.152343-3.363281 7.515624-7.515625 7.515624zm0 0"/><path d="m152.121094 105.289062h-15.480469c-4.152344 0-7.519531-3.363281-7.519531-7.515624 0-4.152344 3.367187-7.519532 7.519531-7.519532h15.480469c4.152344 0 7.519531 3.367188 7.519531 7.519532 0 4.152343-3.367187 7.515624-7.519531 7.515624zm0 0"/><path d="m58.414062 243.363281h-15.480468c-4.152344 0-7.519532-3.367187-7.519532-7.519531s3.367188-7.515625 7.519532-7.515625h15.480468c4.152344 0 7.519532 3.363281 7.519532 7.515625s-3.367188 7.519531-7.519532 7.519531zm0 0"/><path d="m105.269531 243.363281h-15.484375c-4.152344 0-7.519531-3.367187-7.519531-7.519531s3.367187-7.515625 7.519531-7.515625h15.484375c4.152344 0 7.515625 3.363281 7.515625 7.515625s-3.363281 7.519531-7.515625 7.519531zm0 0"/><path d="m152.121094 243.363281h-15.480469c-4.152344 0-7.519531-3.367187-7.519531-7.519531s3.367187-7.515625 7.519531-7.515625h15.480469c4.152344 0 7.519531 3.363281 7.519531 7.515625s-3.367187 7.519531-7.519531 7.519531zm0 0"/><path d="m58.414062 425.824219h-15.480468c-4.152344 0-7.519532-3.367188-7.519532-7.519531 0-4.152344 3.367188-7.519532 7.519532-7.519532h15.480468c4.152344 0 7.519532 3.367188 7.519532 7.519532 0 4.152343-3.367188 7.519531-7.519532 7.519531zm0 0"/><path d="m105.269531 425.824219h-15.484375c-4.152344 0-7.519531-3.367188-7.519531-7.519531 0-4.152344 3.367187-7.519532 7.519531-7.519532h15.484375c4.152344 0 7.515625 3.367188 7.515625 7.519532 0 4.152343-3.363281 7.519531-7.515625 7.519531zm0 0"/><path d="m152.121094 425.824219h-15.480469c-4.152344 0-7.519531-3.367188-7.519531-7.519531 0-4.152344 3.367187-7.519532 7.519531-7.519532h15.480469c4.152344 0 7.519531 3.367188 7.519531 7.519532 0 4.152343-3.367187 7.519531-7.519531 7.519531zm0 0"/></g><path d="m471.867188 0h-126.730469c-4.152344 0-7.519531 3.367188-7.519531 7.519531v126.730469c0 4.152344 3.367187 7.519531 7.519531 7.519531h126.730469c4.152343 0 7.519531-3.367187 7.519531-7.519531v-126.730469c0-4.152343-3.367188-7.519531-7.519531-7.519531zm0 0" fill="#f9e075"/><path d="m471.867188 0h-23.054688c4.152344 0 7.519531 3.367188 7.519531 7.519531v126.730469c0 4.152344-3.367187 7.519531-7.519531 7.519531h23.054688c4.152343 0 7.519531-3.367187 7.519531-7.519531v-126.730469c0-4.152343-3.367188-7.519531-7.519531-7.519531zm0 0" fill="#f9cd45"/><path d="m440.382812 0h-63.765624v86.46875c0 4.152344 3.367187 7.519531 7.519531 7.519531h48.730469c4.152343 0 7.515624-3.367187 7.515624-7.519531zm0 0" fill="#f8c03c"/><path d="m471.867188 185.617188h-126.730469c-4.152344 0-7.519531 3.367187-7.519531 7.515624v126.734376c0 4.152343 3.367187 7.519531 7.519531 7.519531h126.730469c4.152343 0 7.519531-3.367188 7.519531-7.519531v-126.734376c0-4.148437-3.367188-7.515624-7.519531-7.515624zm0 0" fill="#f9e075"/><path d="m471.867188 185.617188h-23.054688c4.152344 0 7.519531 3.367187 7.519531 7.515624v126.734376c0 4.152343-3.367187 7.519531-7.519531 7.519531h23.054688c4.152343 0 7.519531-3.367188 7.519531-7.519531v-126.734376c0-4.148437-3.367188-7.515624-7.519531-7.515624zm0 0" fill="#f9cd45"/><path d="m440.382812 185.617188h-63.765624v86.46875c0 4.152343 3.367187 7.519531 7.519531 7.519531h48.730469c4.152343 0 7.515624-3.367188 7.515624-7.519531zm0 0" fill="#f8c03c"/><path d="m471.867188 370.230469h-126.730469c-4.152344 0-7.519531 3.367187-7.519531 7.515625v126.734375c0 4.152343 3.367187 7.519531 7.519531 7.519531h126.730469c4.152343 0 7.519531-3.367188 7.519531-7.519531v-126.734375c0-4.148438-3.367188-7.515625-7.519531-7.515625zm0 0" fill="#f9e075"/><path d="m471.867188 370.230469h-23.054688c4.152344 0 7.519531 3.367187 7.519531 7.515625v126.734375c0 4.152343-3.367187 7.519531-7.519531 7.519531h23.054688c4.152343 0 7.519531-3.367188 7.519531-7.519531v-126.734375c0-4.148438-3.367188-7.515625-7.519531-7.515625zm0 0" fill="#f9cd45"/><path d="m440.382812 370.230469h-63.765624v86.46875c0 4.152343 3.367187 7.519531 7.519531 7.519531h48.730469c4.152343 0 7.515624-3.367188 7.515624-7.519531zm0 0" fill="#f8c03c"/><path d="m0 136.363281h195.054688v64.863281h-195.054688zm0 0" fill="#d0cfd1"/><path d="m97.527344 315.542969-97.527344-54.304688v67.035157l97.527344 54.308593 97.527344-54.308593v-67.035157zm0 0" fill="#d0cfd1"/><path d="m171.121094 136.363281h23.933594v64.863281h-23.933594zm0 0" fill="#9c9b9d"/><path d="m171.121094 274.5625v67.039062l23.933594-13.328124v-67.035157zm0 0" fill="#9c9b9d"/></svg>