<svg height="512pt" viewBox="0 -23 512 512" width="512pt" xmlns="http://www.w3.org/2000/svg"><path d="m372.945312 459.285156c-.75-11.710937 5.332032-37.335937-22.449218-37.335937h-188.886719c-28.417969 0-21.699219 25.625-22.445313 37.335937zm0 0" fill="#d0cfd1"/><path d="m350.496094 421.949219h-25c27.78125 0 21.699218 25.625 22.449218 37.335937h25c-.75-11.710937 5.332032-37.335937-22.449218-37.335937zm0 0" fill="#9c9b9d"/><path d="m188.347656 340.164062h135.304688v81.785157h-135.304688zm0 0" fill="#fff4f1"/><path d="m299.652344 340.164062h24v81.785157h-24zm0 0" fill="#ecedef"/><path d="m483.6875 372.09375h-455.375c-11.449219 0-20.8125-9.363281-20.8125-20.8125v-322.96875c0-11.449219 9.363281-20.8125 20.8125-20.8125h455.375c11.449219 0 20.8125 9.363281 20.8125 20.8125v322.96875c0 11.445312-9.367188 20.8125-20.8125 20.8125zm0 0" fill="#fff4f1"/><path d="m504.5 60.488281v-32.175781c0-11.449219-9.363281-20.8125-20.8125-20.8125h-455.375c-11.449219 0-20.8125 9.363281-20.8125 20.8125v32.175781zm0 0" fill="#4890e3"/><path d="m483.6875 7.5h-24c11.449219 0 20.8125 9.363281 20.8125 20.8125v322.96875c0 11.449219-9.363281 20.8125-20.8125 20.8125h24c11.449219 0 20.8125-9.363281 20.8125-20.8125v-322.96875c0-11.449219-9.363281-20.8125-20.8125-20.8125zm0 0" fill="#ecedef"/><path d="m7.5 319.101562v32.179688c0 11.445312 9.363281 20.8125 20.8125 20.8125h455.375c11.449219 0 20.8125-9.367188 20.8125-20.8125v-32.179688zm0 0" fill="#4890e3"/><path d="m480.5 351.28125c0 11.449219-9.363281 20.8125-20.8125 20.8125h24c2.148438 0 4.21875-.328125 6.171875-.941406 1.300781-.40625 2.546875-.9375 3.726563-1.582032 6.488281-3.535156 10.914062-10.417968 10.914062-18.289062v-32.179688h-24zm0 0" fill="#2970d6"/><path d="m497.609375 12.910156c-.382813-.347656-.773437-.683594-1.183594-1.003906-.894531-.695312-1.835937-1.339844-2.839843-1.882812-1.179688-.644532-2.425782-1.175782-3.726563-1.582032-1.953125-.613281-4.027344-.941406-6.171875-.941406h-24c11.445312 0 20.8125 9.363281 20.8125 20.8125v32.175781h24v-32.175781c0-6.097656-2.675781-11.589844-6.890625-15.402344zm0 0" fill="#2970d6"/><path d="m346.964844 197.714844h42.09375v29.875l82.5-63.9375-.695313-.402344h-123.878906" fill="#f45a3c"/><path d="m479.042969 163.144531c-.171875-2.492187-1.570313-4.738281-3.734375-5.988281l-.699219-.402344c-1.140625-.65625-2.433594-1.003906-3.746094-1.003906h-121.863281v15h101.15625l-53.597656 41.539062v-14.574218c0-4.140625-3.359375-7.5-7.5-7.5h-40.058594v15h32.558594v22.375c0 2.863281 1.628906 5.476562 4.199218 6.734375 1.046876.515625 2.175782.765625 3.300782.765625 1.632812 0 3.253906-.53125 4.59375-1.570313l82.5-63.9375c1.976562-1.53125 3.058594-3.945312 2.890625-6.4375zm0 0" fill="#18191b"/><path d="m169.171875 164.957031h-41.722656v-29.875l-82.5 63.9375.695312.402344h125.359375" fill="#4890e3"/><path d="m171 191.921875h-104.648438l53.597657-41.539063v14.574219c0 4.140625 3.359375 7.5 7.5 7.5h41.726562c.628907 0 1.238281-.089843 1.824219-.234375v-14.53125c-.585938-.148437-1.195312-.234375-1.824219-.234375h-34.226562v-22.375c0-2.863281-1.628907-5.476562-4.199219-6.734375-2.566406-1.261718-5.632812-.945312-7.894531.804688l-82.5 63.9375c-1.972657 1.53125-3.058594 3.945312-2.886719 6.4375.167969 2.492187 1.566406 4.738281 3.726562 5.988281l.699219.402344c1.140625.65625 2.433594 1.003906 3.75 1.003906h125.355469zm0 0" fill="#18191b"/><path d="m348.796875 181.289062c0 49.601563-40.210937 89.8125-89.8125 89.8125s-89.8125-40.210937-89.8125-89.8125c0-49.601562 40.210937-89.8125 89.8125-89.8125s89.8125 40.210938 89.8125 89.8125zm0 0" fill="#f9cd45"/><path d="m258.984375 91.476562c-4.070313 0-8.074219.277344-12 .800782 43.925781 5.863281 77.8125 43.480468 77.8125 89.011718s-33.886719 83.144532-77.8125 89.011719c3.925781.523438 7.929687.800781 12 .800781 49.601563 0 89.8125-40.210937 89.8125-89.8125 0-49.601562-40.210937-89.8125-89.8125-89.8125zm0 0" fill="#f8b53c"/><path d="m483.6875 0h-455.375c-15.613281 0-28.3125 12.699219-28.3125 28.3125v322.96875c0 15.613281 12.699219 28.3125 28.3125 28.3125h152.535156v34.855469h-19.238281c-9.8125 0-17.394531 2.703125-22.535156 8.035156-8.25 8.5625-7.792969 21.03125-7.460938 30.132813.085938 2.359374.167969 4.585937.066407 6.191406-.132813 2.066406.59375 4.097656 2.011718 5.609375 1.417969 1.511719 3.398438 2.367187 5.472656 2.367187h233.78125c2.070313 0 4.050782-.855468 5.46875-2.367187 1.417969-1.511719 2.148438-3.542969 2.015626-5.609375-.101563-1.574219-.042969-3.71875.015624-5.992188.238282-9.222656.570313-21.847656-7.800781-30.441406-5.125-5.261719-12.574219-7.925781-22.148437-7.925781h-19.34375v-34.855469h152.535156c15.609375 0 28.3125-12.699219 28.3125-28.3125v-322.96875c0-15.613281-12.699219-28.3125-28.3125-28.3125zm-121.789062 432.839844c3.835937 3.9375 3.742187 12.148437 3.566406 18.945312h-218.871094c-.246094-6.722656-.492188-14.972656 3.28125-18.890625 2.203125-2.285156 6.152344-3.445312 11.734375-3.445312h188.886719c5.371094 0 9.207031 1.140625 11.402344 3.390625zm-45.746094-18.390625h-120.304688v-34.855469h120.304688zm167.535156-49.855469h-455.375c-7.339844 0-13.3125-5.972656-13.3125-13.3125v-24.679688h400.035156c4.144532 0 7.5-3.355468 7.5-7.5 0-4.140624-3.355468-7.5-7.5-7.5h-400.035156v-243.609374h63.035156c4.144532 0 7.5-3.359376 7.5-7.5 0-4.144532-3.355468-7.5-7.5-7.5h-63.035156v-24.679688c0-7.339844 5.972656-13.3125 13.3125-13.3125h455.375c7.339844 0 13.3125 5.972656 13.3125 13.3125v24.679688h-388.855469c-4.144531 0-7.5 3.355468-7.5 7.5 0 4.140624 3.355469 7.5 7.5 7.5h388.855469v243.609374h-51.855469c-4.144531 0-7.5 3.359376-7.5 7.5 0 4.144532 3.355469 7.5 7.5 7.5h51.855469v24.679688c0 7.339844-5.972656 13.3125-13.3125 13.3125zm0 0"/><path d="m258.984375 83.976562c-53.65625 0-97.3125 43.652344-97.3125 97.3125 0 53.660157 43.652344 97.3125 97.3125 97.3125s97.3125-43.65625 97.3125-97.3125-43.652344-97.3125-97.3125-97.3125zm0 179.625c-45.386719 0-82.3125-36.925781-82.3125-82.3125 0-45.386718 36.925781-82.3125 82.3125-82.3125s82.3125 36.925782 82.3125 82.3125c0 45.386719-36.925781 82.3125-82.3125 82.3125zm0 0"/><path d="m263.054688 172.734375v-15.59375c6.941406.535156 8.972656 3.953125 12.496093 3.953125 4.699219 0 6.621094-5.875 6.621094-8.761719 0-7.367187-12.496094-9.078125-19.117187-9.292969v-2.667968c0-1.496094-2.03125-2.882813-4.058594-2.882813-2.351563 0-4.058594 1.386719-4.058594 2.882813v2.992187c-11.324219 1.601563-21.363281 8.117188-21.363281 21.683594 0 13.671875 11.535156 18.261719 21.363281 22v17.304687c-7.90625-1.386718-11.539062-7.691406-16.023438-7.691406-4.058593 0-7.261718 5.34375-7.261718 8.972656 0 6.835938 10.464844 13.460938 23.285156 13.886719v2.671875c0 1.492188 1.707031 2.882813 4.058594 2.882813 2.027344 0 4.058594-1.390625 4.058594-2.882813v-3.097656c12.496093-2.03125 21.042968-10.042969 21.042968-23.285156 0-14.421875-11.324218-19.441406-21.042968-23.074219zm-7.050782-2.5625c-4.058594-1.710937-6.835937-3.632813-6.835937-6.730469 0-2.5625 2.03125-5.019531 6.835937-5.980468zm5.980469 34.070313v-14.3125c3.847656 1.816406 6.515625 4.058593 6.515625 7.585937 0 3.84375-2.882812 5.875-6.515625 6.726563zm0 0"/></svg>